:SAMPLES-PER-SECOND 30
:FULLY-SPECIFIED
:DEGREES
388
root  37.4859 38.6932 -35.6877 8.05865 52.6497 5.21863
RightUpLeg  -26.9054 -6.20197 -2.21178
RightLeg  8.64562 17.4765 6.70142
RightFoot  11.8695 -2.10397 10.7309
RightToes  0.00048216 0.542163 -0.142577
Spine  53.6891 -1.31196 1.79607
Spine1  5.46406 -0.415814 -1.13326
HEad  -26.6938 -18.0137 12.2179
LeftShoulder1  10.1033 -17.0495 -42.71
LeftArm  -21.3365 -7.82326 -18.3734
LeftForeArm  18.3546 -70.0078 -31.4812
LeftHand  -0.25398 0.0180481 5.50724
RightShoulder  5.30165 11.1652 30.1762
RightArm  -20.9937 2.32985 29.8481
RightForeArm  17.7374 76.341 59.4422
RightHand  0.0813702 -10.8084 -3.27272
LeftUpLeg  -22.1895 -0.291537 -3.80724
LeftLeg  30.4812 -6.13967 -3.55729
LeftFoot  -10.3547 0.0588815 0.0999232
LeftToes  1.06245e-005 4.65855e-005 -8.18504e-006
389
root  37.4257 38.6785 -36.1656 6.24506 45.9282 4.21265
RightUpLeg  -24.0052 -6.43262 -2.61634
RightLeg  2.94662 20.1221 6.93317
RightFoot  7.95079 -3.98586 23.5838
RightToes  0.00048216 0.542163 -0.142577
Spine  51.0064 -0.260334 -1.24075
Spine1  5.0655 -0.320528 -2.05305
HEad  -23.1157 -18.0567 12.3344
LeftShoulder1  9.87057 -16.4486 -43.0037
LeftArm  -23.4414 -2.19455 -16.4795
LeftForeArm  25.2505 -73.0359 -38.4219
LeftHand  -0.25398 0.0180481 5.50724
RightShoulder  5.48979 11.1437 31.5293
RightArm  -18.1456 0.678505 32.3763
RightForeArm  23.9212 77.0016 64.68
RightHand  0.131677 -11.4424 -3.95095
LeftUpLeg  -21.002 4.20413 -4.21788
LeftLeg  29.5204 -3.08823 -1.53127
LeftFoot  -10.6889 0.0507909 2.17268
LeftToes  1.06245e-005 4.65855e-005 -8.18504e-006
390
root  37.2841 38.6618 -36.511 5.06635 39.704 4.10107
RightUpLeg  -20.8449 -7.95746 -3.63557
RightLeg  -1.7462 14.9634 7.52756
RightFoot  3.13256 -4.23291 32.53
RightToes  0.00048216 0.542163 -0.142577
Spine  48.268 0.616819 -4.83132
Spine1  4.47472 -0.760411 -2.22645
HEad  -20.269 -18.3285 13.0215
LeftShoulder1  9.36945 -15.717 -42.3344
LeftArm  -25.3623 3.07534 -15.2551
LeftForeArm  32.7424 -75.4046 -46.8281
LeftHand  -0.25398 0.0180481 5.50724
RightShoulder  5.68214 11.2199 32.6454
RightArm  -15.1589 -0.516537 34.8011
RightForeArm  29.1547 77.4679 69.7144
RightHand  0.214173 -11.6637 -5.30803
LeftUpLeg  -20.4912 10.7445 -4.448
LeftLeg  29.6577 -2.5897 -1.23347
LeftFoot  -10.3031 0.050328 1.38457
LeftToes  1.06245e-005 4.65855e-005 -8.18504e-006
391
root  37.0986 38.7805 -36.8236 3.8598 33.5778 3.9502
RightUpLeg  -17.9969 -9.142 -4.53353
RightLeg  -3.85018 1.25392 9.12626
RightFoot  -0.614524 -3.13389 32.2569
RightToes  0.00048216 0.542163 -0.142577
Spine  45.4645 1.07332 -7.34923
Spine1  4.60321 -1.11356 -2.57876
HEad  -18.2435 -19.8345 14.3306
LeftShoulder1  8.80205 -15.0063 -41.2272
LeftArm  -26.6423 7.41442 -14.7753
LeftForeArm  39.4861 -76.8727 -54.9022
LeftHand  -0.25398 0.0180481 5.50724
RightShoulder  5.86652 11.281 33.7302
RightArm  -12.7801 -1.88729 36.6583
RightForeArm  34.0532 77.8072 74.9141
RightHand  0.305308 -11.934 -6.66242
LeftUpLeg  -19.1177 17.1337 -4.23683
LeftLeg  28.5684 -3.04519 -1.43888
LeftFoot  -9.40136 0.0495554 0.371005
LeftToes  1.06245e-005 4.65855e-005 -8.18504e-006
392
root  36.9285 39.0799 -37.1358 2.65582 27.0453 3.3064
RightUpLeg  -16.7602 -9.57668 -4.59195
RightLeg  -2.83382 -14.3099 10.1237
RightFoot  -2.22079 -1.94084 23.9203
RightToes  0.00048216 0.542163 -0.142577
Spine  42.8258 1.28187 -8.0604
Spine1  4.84683 -0.95653 -3.34271
HEad  -17.0062 -22.7005 15.708
LeftShoulder1  8.44353 -14.512 -40.5857
LeftArm  -27.2752 11.0761 -14.4426
LeftForeArm  45.5457 -77.758 -61.9962
LeftHand  -0.25398 0.0180481 5.50724
RightShoulder  5.96134 11.17 34.6672
RightArm  -11.1354 -3.71659 37.8304
RightForeArm  38.5202 78.02 79.7239
RightHand  0.387139 -12.5993 -7.39712
LeftUpLeg  -16.8722 21.8699 -3.42695
LeftLeg  25.482 -1.6854 -0.530595
LeftFoot  -8.22525 0.0396455 0.338456
LeftToes  1.06245e-005 4.65855e-005 -8.18504e-006
393
root  36.7802 39.4249 -37.3431 1.44781 20.3392 2.69012
RightUpLeg  -16.6091 -11.4958 -4.42984
RightLeg  1.34617 -22.9406 8.877
RightFoot  -2.4324 -1.24045 15.6562
RightToes  0.00048216 0.542163 -0.142577
Spine  40.7347 1.5631 -8.05312
Spine1  4.50899 -0.479199 -3.79621
HEad  -16.4438 -26.0243 16.6281
LeftShoulder1  8.3098 -14.1844 -40.6908
LeftArm  -27.3914 14.4603 -14.062
LeftForeArm  52.0707 -78.387 -69.0724
LeftHand  -0.25398 0.0180481 5.50724
RightShoulder  5.95247 10.952 35.2094
RightArm  -9.87961 -5.6223 38.33
RightForeArm  41.2347 78.1051 82.7789
RightHand  0.44689 -13.3752 -7.59635
LeftUpLeg  -14.0374 25.2453 -2.11802
LeftLeg  21.9476 1.25589 0.877486
LeftFoot  -6.79035 0.0437847 -0.034389
LeftToes  1.06245e-005 4.65855e-005 -8.18504e-006
394
root  36.6255 39.7077 -37.3895 0.155945 13.6583 2.27521
RightUpLeg  -17.0879 -19.5794 -3.05201
RightLeg  7.7604 -18.2388 5.40508
RightFoot  -2.66029 -0.907232 11.6752
RightToes  0.00048216 0.542163 -0.142577
Spine  38.8802 1.82756 -7.90589
Spine1  4.00783 -0.00773979 -3.8715
HEad  -16.1229 -28.7191 17.0737
LeftShoulder1  8.20049 -13.8255 -41.0124
LeftArm  -27.211 17.7011 -14.0018
LeftForeArm  59.2208 -78.8247 -76.4712
LeftHand  -0.25398 0.0180481 5.50724
RightShoulder  5.95108 10.8355 35.5286
RightArm  -8.59832 -7.01337 38.0083
RightForeArm  41.2419 78.1005 83.3406
RightHand  0.483944 -14.119 -7.49334
LeftUpLeg  -10.6118 27.4022 0.0403873
LeftLeg  19.2039 5.27566 1.54869
LeftFoot  -5.40922 0.109519 -1.48641
LeftToes  1.06245e-005 4.65855e-005 -8.18504e-006
395
root  36.4313 39.8956 -37.3074 -0.824768 7.2104 1.87683
RightUpLeg  -19.0562 -30.5977 -0.502255
RightLeg  13.7099 -5.12473 1.6335
RightFoot  -3.00082 -0.743116 9.89219
RightToes  0.00048216 0.542163 -0.142577
Spine  36.5597 1.64617 -7.26053
Spine1  3.84283 0.337452 -4.30882
HEad  -15.6672 -30.4146 17.359
LeftShoulder1  8.02962 -13.4523 -41.0439
LeftArm  -26.9321 20.844 -14.4507
LeftForeArm  66.0832 -79.0556 -83.4335
LeftHand  -0.25398 0.0180481 5.50724
RightShoulder  5.98939 10.8065 35.8736
RightArm  -7.08831 -7.82071 36.9381
RightForeArm  39.5998 78.0534 82.621
RightHand  0.517285 -14.9057 -7.3279
LeftUpLeg  -6.99834 25.8 3.15913
LeftLeg  17.2845 12.891 1.1826
LeftFoot  -4.5819 0.188454 -2.74052
LeftToes  1.06245e-005 4.65855e-005 -8.18504e-006
396
root  36.1461 40.0019 -37.1275 -1.0304 1.4502 1.4668
RightUpLeg  -20.6951 -32.6871 -0.688691
RightLeg  17.1787 0.671226 -0.116482
RightFoot  -2.79664 -0.604327 7.8393
RightToes  0.00048216 0.542163 -0.142577
Spine  33.5709 0.984366 -6.10043
Spine1  3.92483 0.431267 -5.0634
HEad  -15.1629 -31.3959 17.6824
LeftShoulder1  7.90059 -13.2652 -40.8182
LeftArm  -26.5565 23.8721 -15.1555
LeftForeArm  72.3068 -79.1275 -89.6369
LeftHand  -0.25398 0.0180481 5.50724
RightShoulder  5.96732 10.6704 36.1143
RightArm  -5.54819 -8.52759 35.6175
RightForeArm  38.6868 78.0235 82.9321
RightHand  0.559596 -15.2453 -7.58857
LeftUpLeg  -4.32631 20.4246 5.93214
LeftLeg  15.8285 23.5312 0.503
LeftFoot  -4.06647 0.236022 -3.32963
LeftToes  1.06245e-005 4.65855e-005 -8.18504e-006
397
root  35.7251 40.0629 -36.8504 -0.812927 -3.30698 1.28265
RightUpLeg  -20.6157 -30.3698 -3.49944
RightLeg  18.2192 -0.346743 -0.38577
RightFoot  -2.33385 -0.447113 5.46438
RightToes  0.00048216 0.542163 -0.142577
Spine  30.5136 0.201084 -4.98643
Spine1  4.02117 0.145844 -5.27902
HEad  -14.7474 -32.0201 17.9257
LeftShoulder1  7.86451 -13.2707 -40.601
LeftArm  -25.969 26.5055 -15.876
LeftForeArm  77.9641 -79.0963 -95.0818
LeftHand  -0.25398 0.0180481 5.50724
RightShoulder  5.85613 10.4084 36.1085
RightArm  -4.39795 -9.63087 34.3892
RightForeArm  40.3582 78.0464 85.6534
RightHand  0.577878 -14.7426 -8.16057
LeftUpLeg  -2.38797 15.248 7.63027
LeftLeg  14.3851 32.5836 -0.0187738
LeftFoot  -3.25658 0.340123 -4.51908
LeftToes  1.06245e-005 4.65855e-005 -8.18504e-006
398
root  35.1752 40.1 -36.494 -0.884399 -7.51834 1.45721
RightUpLeg  -19.8273 -32.0688 -5.65137
RightLeg  16.8401 -2.36982 -0.890716
RightFoot  -2.49224 -0.299294 3.63194
RightToes  0.00048216 0.542163 -0.142577
Spine  28.1312 -0.418683 -4.10025
Spine1  3.96765 -0.335385 -4.78936
HEad  -14.2735 -32.6049 17.8476
LeftShoulder1  7.82798 -13.2314 -40.4988
LeftArm  -25.1733 28.3789 -16.6376
LeftForeArm  82.3191 -79.0268 -98.9894
LeftHand  -0.25398 0.0180481 5.50724
RightShoulder  5.74361 10.1493 36.0847
RightArm  -3.77687 -11.2135 33.122
RightForeArm  44.6038 78.0706 90.2199
RightHand  0.529817 -14.3682 -7.88642
LeftUpLeg  0.0401346 13.0141 8.64815
LeftLeg  12.4951 38.2565 -0.659626
LeftFoot  -2.17047 0.518163 -6.29741
LeftToes  1.06245e-005 4.65855e-005 -8.18504e-006
